<svg xmlns="http://www.w3.org/2000/svg" width="1200" height="630" viewBox="0 0 1200 630" role="img" aria-labelledby="title desc">
  <title id="title">Trendify tienda virtual en línea</title>
  <desc id="desc">Imagen abierta utilizada para compartir Trendify, tienda virtual peruana de moda y accesorios.</desc>
  <defs>
    <linearGradient id="bg" x1="0%" y1="0%" x2="100%" y2="100%">
      <stop offset="0%" stop-color="#2563EB" />
      <stop offset="100%" stop-color="#1E3A8A" />
    </linearGradient>
    <linearGradient id="card" x1="0%" y1="0%" x2="100%" y2="100%">
      <stop offset="0%" stop-color="rgba(255,255,255,0.95)" />
      <stop offset="100%" stop-color="rgba(255,255,255,0.8)" />
    </linearGradient>
  </defs>
  <rect width="1200" height="630" fill="url(#bg)" rx="40" />
  <g transform="translate(120, 120)">
    <rect width="960" height="390" rx="32" fill="url(#card)" stroke="rgba(255,255,255,0.5)" stroke-width="3" />
    <g transform="translate(60, 70)">
      <text x="0" y="0" fill="#1E3A8A" font-family="'Poppins', 'Segoe UI', sans-serif" font-size="46" font-weight="700">
        Trendify Perú
      </text>
      <text x="0" y="72" fill="#1F2937" font-family="'Poppins', 'Segoe UI', sans-serif" font-size="30" font-weight="500">
        Moda, calzado y accesorios con envíos rápidos y pagos seguros.
      </text>
      <g transform="translate(0, 132)">
        <rect width="520" height="120" rx="24" fill="#2563EB" />
        <text x="40" y="76" fill="#FFFFFF" font-family="'Poppins', 'Segoe UI', sans-serif" font-size="40" font-weight="600">
          Compra online con estilo
        </text>
      </g>
    </g>
    <g transform="translate(660, 90)">
      <circle cx="110" cy="110" r="110" fill="#DBEAFE" />
      <g transform="translate(40, 35)">
        <path fill="#1E3A8A" d="M88 0c48.6 0 88 39.4 88 88s-39.4 88-88 88-88-39.4-88-88S39.4 0 88 0zm0 24c-11.6 0-21 9.4-21 21s9.4 21 21 21 21-9.4 21-21-9.4-21-21-21z" opacity="0.15" />
        <path fill="#2563EB" d="M54 162c-4.4 0-8-3.6-8-8 0-38.7 31.3-70 70-70s70 31.3 70 70c0 4.4-3.6 8-8 8H54z" />
        <path fill="#1E3A8A" d="M84.4 73.6c5.1 6.2 14.8 6.2 20 0l40.9-50.2c3-3.7.4-9.1-4.5-9.1H48c-4.9 0-7.5 5.4-4.5 9.1l40.9 50.2z" />
      </g>
    </g>
  </g>
</svg>
